ply
format ascii 1.0
element vertex 32
property float x
property float y
property float z
end_header
0.000000 0.000000 0.000000
0.020000 0.000000 0.010000
0.040000 0.000000 0.020000
0.060000 0.000000 0.030000
0.000000 0.020000 0.040000
0.020000 0.020000 0.000000
0.040000 0.020000 0.010000
0.060000 0.020000 0.020000
0.000000 0.040000 0.030000
0.020000 0.040000 0.040000
0.040000 0.040000 0.000000
0.060000 0.040000 0.010000
0.000000 0.060000 0.020000
0.020000 0.060000 0.030000
0.040000 0.060000 0.040000
0.060000 0.060000 0.000000
2.000000 0.000000 0.000000
2.020000 0.000000 0.010000
2.040000 0.000000 0.020000
2.060000 0.000000 0.030000
2.000000 0.020000 0.040000
2.020000 0.020000 0.000000
2.040000 0.020000 0.010000
2.060000 0.020000 0.020000
2.000000 0.040000 0.030000
2.020000 0.040000 0.040000
2.040000 0.040000 0.000000
2.060000 0.040000 0.010000
2.000000 0.060000 0.020000
2.020000 0.060000 0.030000
2.040000 0.060000 0.040000
2.060000 0.060000 0.000000
